<mxfile host="app.diagrams.net" modified="2021-02-02T10:33:18.437Z" agent="5.0 (X11; Linux x86_64) AppleWebKit/537.36 (KHTML, like Gecko) Chrome/88.0.4324.96 Safari/537.36" etag="2fubwhwUDW_eYM7d-kNW" version="14.2.9" type="github">
  <diagram id="bFVrqZ2lby6xuUnqwK6D" name="Page-1">
    <mxGraphModel dx="996" dy="665" grid="1" gridSize="10" guides="1" tooltips="1" connect="1" arrows="1" fold="1" page="1" pageScale="1" pageWidth="827" pageHeight="1169" math="0" shadow="0">
      <root>
        <mxCell id="0" />
        <mxCell id="1" parent="0" />
        <mxCell id="W3ea0DVXf6WTYK9IU8-N-3" value="" style="ellipse;whiteSpace=wrap;html=1;strokeWidth=5;" vertex="1" parent="1">
          <mxGeometry x="352.25" y="283.13" width="117.5" height="113.75" as="geometry" />
        </mxCell>
        <mxCell id="W3ea0DVXf6WTYK9IU8-N-5" value="" style="shape=image;verticalLabelPosition=bottom;labelBackgroundColor=#ffffff;verticalAlign=top;aspect=fixed;imageAspect=0;image=data:image/png,iVBORw0KGgoAAAANSUhEUgAAAE4AAABLCAIAAABRBSb5AAALxklEQVR4Ae2beUwT2x7HpwulFARRogiKgkCCSzUR9y0oKnEJFqOCErfghsQSF0zcMERco1yFKKJRQWvciSLkSlAikVTAICJSNIil8gqFsrSWIi0z85I3N4dhtk5ra/K8zl/fc5hzfr/P+Z19CoT+ax7IcaR9fX0NDQ1/Mz6FhYVVVVWO8wFfswNRu7u7r169Gsz4jB8/PjExEe+Q47QDUQ0Gw+nTpyHGRyAQrFmzxnF4+Jr/oOJbw1b9J6oDOvSfDmxrR2Is92esMjYPyz/+Gau2j1UYhpubm//D+JjNZrpI/D914M7OTqFQOKCpBiZcXFyUSuXvgNrc3DwQjZgaO3ZsU1PT74CqUCiIcAPT8+fPb2lp+R1QS0tLB6IRUxs2bGhvb7eMqlar5XJ5Mevn1atXZWVldXV17e3tMAyTDdh9Br5//z4RbmD61KlTBoOB7AmW0z8t3bt3b9asWWNYP4GBgVOnTpVIJEeOHMnNzSUPErujpqWlDUQjpnJzc00mk2XUa9eu+fn5EUuzS48cOXLHjh3l5eV4M3ZH3bdvH4M7gwcPrqysRBAE7wNe90f1Z1AxD8LDw2tqakDtdkddvXo1A+rs2bMbGhqAdbKwJyoEQRs2bABdyO6okyZNYkBNSEhobW0lE4KcftTKysq//vorhf45duxYfHz8hAkTGOwNHTr0zZs3WO32RTWbze7u7nSmuVxudnZ2T08PACOLftTe3l6dTtdF/3R2djY1NZ08edLT05POpLOzc2pqqiNQGxsbORwOnV1/f3+5XM4wUFEU7UclNwNlzr1790aNGkVnks/nr1u3zmZUGIY/fvx48eLFPXv2pKamlpeX//jxA6vt6dOndEYhCIqOjv769SulwyDTatRbt24NGzaMziqXyw0PD7cN1Wg0ymSyadOmeXl5ubm5eXp6BgQEJCYmqtVqBEGSk5PpjPJ4vMzMTKPRCKgohdWoV65ccXV1pbNqMyoMw/n5+SEhIVwuF1+5SCSaNWvWp0+fli9fjs/Ha7FY/Pr1a+bea3UHhmE4LS2NYczweDyJRGJDVJVK5ZYtW0QiUVRUlEwmi4+PHzp0KMbD5XIDAwNBEg+JaalUqlarKSOJz7QuqkajMSUlhWwM5PD5/C1bttiAWlRUNHr06Li4OI1Gg6Ko2Ww+evQow/wHLHp7e+fm5uKR6LR1qB0dHUlJScAMWQgEgsOHD1uLajKZcnJyQkNDX758CRzV6XSRkZFOTk5kKyCHw+Fs3LiReecAKrQOValUbt68GVgiC6FQeO3aNWtRtVptcnLyxo0bCQvj8+fP/f39yVZAjq+vr0wmozxsAEIgrEN99+5dREQEsEQWrq6uIDLstxCNjY1SqTQlJQW4hQmz2RwdHS0QCMiGIAhycnKKi4tTqVSEUnRJ61CLi4snT55MaRjLHDJkCDgcs0etq6vbvn17Tk4O2cuCggK6tW3ixIlPnjwhF6HLsQ718ePHw4cPZ0AVi8XAEnvUqqqq9evX5+fng7JAaDSaMWPGkC16enoePXpUp9OBNy0KK1DNZnNWVhafzycbBjk7d+4EJtmjVlRUrFy5sri4GJQFoqSkhDKqM2fOLC0tBa+xEVagarXagwcPAipK8ejRI2CVPapcLg8PDy8qKgJlMYEgyJEjRyh3LGKxmLIXEGrAJ61Araurk0gklIRYpru7OxioKIqyRy0tLZ0xYwZ5eayrq5s+fTph/4TZEgqF27ZtY7NzALRWoL5+/TokJIQBddmyZaBea1EnTJiQkZGBL46i6PHjxxl2EWPHjpXJZH19fYRSdEm2qH19fffv33dxcWFAlclkeDPsoyqXywMCAg4cOIAvrlAo5s6dSxlSzAcejxcTE/Pp0yd8KQbNFlWv1zNvCX19fQkXk+xR379/Hxoaun79er1ej/mq1+v379/v4eHB0LIQBA0bNiwzMxMc9Bg4rdjuq1Qq5s1DUlISwRJ71ObmZqlUOmnSpIKCAhRFNRrNoUOHCKuat7f34MGDyeRLly5l+cMRVlFFEKSqqoph2IhEotraWptRzWbz06dPfX19xWJxbGzszJkz3dzc8OenwMDAsrKyyMhIMqqrq2tmZiZhR0nwBEuyQjUajZcvXyabATmbN2/u7u4mGGAfVQRBWltbDxw4wP/fQxifK1asaGhogGE4PT0dWMSLJUuWVFdXE6yTk6xQ29raoqKi8LXjtUAgePv2LXnPzR4Vc+vbt2+JiYn4VXTcuHHZ2dngeoHum42Tk9ONGzcsjljLqAiCfP78mXKcYMBxcXEdHR3kVrQWFTum1tbWymSynJyciooKAIlVrtPpgoOD8a0MdHh4uEKhYL6IsIza29t7/vx5UClBjBgxoqysjBxSq9ZVcjNR5hiNxq1btxIcwJJ8Pv/27dvMI9Yyant7e2hoKKUB7CBOWGOAlzZEFZSlFCaT6ebNm5SeQBC0fPnyxsZGhsBaRi0qKsJPhnhLs2fP/vDhA13tdkeFYbiiooLH4+F9AFokEhUUFIBvC+TGsoCKIEhMTAyoDi+GDx+enZ1NnniBDbujoij67du3ESNG4N3A69jYWLouZnkLQTchubi4JCQkMN8AOAJVo9EsWLAAj4fX2GcUyonDMmpCQgK+LkxzOJyFCxe+efOGrlIssI5A7ezsjI+PJ7sEcqRSKd3kxNSBFQqFl5cXqAWIkJCQO3fuEFYC0G+BcARqd3c33UYCc2/kyJF0F4hMqLt37wZ4QHh7e6empmq1WoBEJxyBajabnz9/DpyhFOTDIOYhLWpNTQ35M9SgQYO2b99u8UMQVrUjUBEEqaysZP710pQpUyjnYWpUGIZ37dpFuG52dnaWSCTV1dXMQxQE2RGoKIrW1tb6+PhQxhPLdHJyorymokYtLi4m3NNxudy5c+fK5XL2p34HodbX1zNf0EIQFBMTA1ocCArU7u7uVatW4UPK4XCCg4NfvHhB2TFAXQThIFSVSrV48WKGqEIQ5ObmRl4IKVBzcnIIPcTHxyc/P98qTkfsgbGmbGlpiY2NZUZdsWIF+QRCRG1paQkLC8OfGD08PJ48ecLwi0xCMEHSQVHt6OjYs2cPHapQKDx9+rTBYCBvV4moycnJ+NsGoVBYWFgIvLdKOAhVr9fTfUEPCgp69eoV3WzSj4ogSFFRkVgsBg3m5eUFvjVZBYm97CBUg8Fw5swZ4CQmnJ2d161b9/XrV3Iwgef9qGq1eu3atdh3Ch6PFxQUVFJSAt6zQTgItaenJyMjA6Dy+Xw/P79z584xbPQx5/9BNRqNZ8+exS7pnJ2dZ8yYUV5eTtcT8NhdXV1KpbK3t5fcnA5CNZlM169fx1Dd3NzCwsIKCgos3rb0b/cVCsXKlSu5XK67u3tkZOT79+/ZcBqNxvT09EWLFuXl5ZFPc9+/f2fz31OUayC+NQkahuG7d+9yuVwfH5+dO3fW1NSQW5lQBEv+E9XOzs6rV69GREQkJSUplUqW+yGNRiORSAQCwahRo9LS0ggbRq1We+jQIdDTKIWLi4tUKqX0jCGzsLBw3rx5WVlZbW1tDK8R/tQ/Vnt6eqqrq60qjKJoXl5eSEgIh8MRiUSbNm168OBBfX29wWBoaWl5+PDhnDlzKAlBpqen540bNwg+WUyqVKqSkpLe3l6Lb+Jf6EfF57LXP378uHjxIvgEOnr06Ojo6L17927btm3KlCnMH2MhCAoMDKyvr2dv7mfe/FlUFEW7urpOnDjBcHsKYkgQAoFg7969LAfLz0BiZe2AiqKoVqu9cOECiC0BiS45b968L1++/DwDyxrsg4qiqF6vz8vLCwsLo7teJADPnz+/rKyMpZd2ec1uqCiK9vX1ffz4MT09fdq0aQyj1M/P7/Dhw7W1tb+s62ItZU9UFEURBDEYDJ8/f3727FlSUtKiRYsCAgI8PDy8vLzEYnFMTMylS5eqqqrIxw67xI25EjujYsYQBDGZTDqdTqPRNDU1NTY2qlQqtVqt1WqNRiPLFZ/Zbxv+6hBUG/z4BUX+oP6CRv7lJv5FUf0vbEj9ojR+Y0IAAAAASUVORK5CYII=;" vertex="1" parent="1">
          <mxGeometry x="372" y="302.5" width="78" height="75" as="geometry" />
        </mxCell>
      </root>
    </mxGraphModel>
  </diagram>
</mxfile>
